<svg xmlns="http://www.w3.org/2000/svg" aria-hidden="true" style="position:absolute;width:0;height:0;overflow:hidden"><defs><symbol id="icon-arrow" viewBox="0 0 82 32"><path d="M81.414 17.414a2 2 0 0 0 0-2.828L68.686 1.858a2 2 0 1 0-2.828 2.828L77.172 16 65.858 27.314a2 2 0 1 0 2.828 2.828l12.728-12.728zM0 18h80v-4H0v4z"/></symbol><symbol id="icon-close" viewBox="0 0 32 32"><path d="M23.884 6.706 16 14.59 8.116 6.706a.995.995 0 0 0-1.38.031 1 1 0 0 0-.031 1.38l7.88 7.884-7.882 7.882a1.002 1.002 0 0 0-.018 1.427.998.998 0 0 0 1.427-.015l7.886-7.882 7.884 7.884a1 1 0 0 0 1.38-.03 1 1 0 0 0 .03-1.38l-7.884-7.884 7.884-7.886a1.002 1.002 0 0 0 .018-1.427.998.998 0 0 0-1.427.015v.002z"/></symbol><symbol id="icon-cow" viewBox="0 0 31 32"><path d="M6.002.778c-.254.219-.979 1.733-1.24 2.559-.31 1.024-.416 1.791-.373 2.852.056 1.514.437 2.661 1.275 3.861.218.314.394.585.394.607 0 .015-.134.029-.303.029-.726 0-2.085.241-3.128.556C.972 11.739 0 12.609 0 13.582c0 .344.31.929.641 1.228.641.578 2.043 1.126 3.55 1.389.521.095 2.071.256 2.416.263.063 0 .085.336.085 1.44 0 .951.035 1.689.106 2.142.254 1.623 1.043 3.341 2.085 4.555l.359.417-.24.387c-.352.548-.486.965-.528 1.587-.106 1.492.824 2.815 2.62 3.744 3.423 1.777 8.742 1.082 10.735-1.404.972-1.214 1.085-2.603.317-3.861l-.239-.388.43-.519c.803-.965 1.324-1.93 1.719-3.151.331-1.038.458-2.04.458-3.627 0-.724.021-1.323.056-1.323.324-.007 1.881-.175 2.374-.263 1.515-.263 2.888-.804 3.55-1.389.331-.3.641-.885.641-1.228 0-1.082-1.099-1.96-3.142-2.486-.669-.175-1.93-.387-2.543-.424l-.289-.022.317-.439c.394-.534.888-1.572 1.078-2.252.535-1.967.204-4.255-.944-6.442-.479-.907-.81-1.119-1.198-.76-.148.139-.211.329-.352 1.016-.437 2.186-1.247 3.919-2.43 5.199l-.521.57H9.967l-.465-.505c-1.155-1.272-1.993-3.071-2.43-5.264-.141-.687-.204-.877-.352-1.016-.232-.212-.458-.205-.718.022zm.901 4.336c.373.819.838 1.587 1.388 2.296l.437.563-.458.344a4.6 4.6 0 0 0-1.141 1.331l-.134.241-.338-.461c-1.155-1.594-1.444-3.546-.831-5.571.296-.98.289-.972.556-.124.127.409.366 1.031.521 1.382zm18.336-1.543a7.22 7.22 0 0 1 .402 2.464c0 1.331-.352 2.457-1.092 3.466l-.331.453-.247-.417a4.38 4.38 0 0 0-1.233-1.353c-.19-.124-.338-.249-.338-.263 0-.022.134-.19.303-.373.782-.87 1.62-2.435 2.036-3.78.127-.417.254-.76.275-.76s.127.256.225.563zM21.64 8.916c.782.329 1.529 1.272 1.648 2.069.063.439.211.717.402.76.084.015.669.066 1.296.11 2.226.146 3.98.621 4.727 1.272.345.307.31.563-.106.877-.831.629-2.627 1.104-4.459 1.184-1.212.051-1.465.088-1.627.256-.12.124-.134.256-.134 1.579 0 1.791-.092 2.822-.317 3.656-.317 1.133-.944 2.34-1.677 3.195l-.303.351-.627-.373a7.77 7.77 0 0 0-2.325-.943c-2.67-.636-5.621-.249-7.608 1.002l-.458.293-.289-.344c-.394-.461-1.014-1.448-1.261-2.003-.542-1.258-.704-2.281-.704-4.533 0-2.186.113-2.025-1.507-2.113-2.071-.11-3.649-.483-4.642-1.111-.733-.468-.613-.885.409-1.375.979-.475 2.325-.76 4.191-.877 1.451-.095 1.486-.117 1.62-.819.197-1.06.979-1.938 1.965-2.215.246-.073 1.627-.088 5.854-.08l5.53.015.401.168zm-3.959 15.135c1.726.424 3.015 1.214 3.571 2.193.134.227.19.461.218.819.028.446.007.556-.162.921-.782 1.66-3.656 2.756-6.579 2.508-3.515-.293-5.826-2.252-4.917-4.175.493-1.038 2.163-2.033 3.924-2.325.289-.044.578-.095.634-.11s.69-.015 1.409 0c.979.022 1.451.066 1.902.168z"/><path d="M10.693 12.579c-.437.146-.733.336-1.127.731-.345.329-.373.717-.085.95.268.219.521.19.845-.095.409-.358.726-.505 1.12-.505.394-.007.697.132 1.12.505.324.285.578.314.845.095.141-.117.183-.212.183-.431 0-.227-.049-.329-.296-.578-.697-.702-1.733-.972-2.606-.673zM18.906 12.571c-.451.168-1.029.548-1.261.833-.225.278-.232.592 0 .826.232.249.514.234.852-.044.831-.687 1.451-.709 2.219-.073.197.168.423.3.493.3.345 0 .627-.307.627-.673 0-.234-.585-.775-1.113-1.031-.585-.285-1.282-.336-1.817-.139zM11.714 26.106c-.204.197-.275.483-.169.709.078.183.197.256.683.388.218.058.31.132.387.314.099.241.106.241.648.263l.542.022v-.205c-.007-.293-.169-.717-.38-1.009-.247-.336-.676-.556-1.162-.6-.331-.029-.416-.015-.549.117zM18.442 26.054c-.352.095-.859.57-1 .943a2.54 2.54 0 0 0-.134.665c-.014.314.014.388.183.541.416.366.965.08.965-.504 0-.285.211-.483.585-.556.394-.073.535-.234.542-.607 0-.49-.437-.68-1.141-.483z"/></symbol><symbol id="icon-cursor" viewBox="0 0 32 32"><path stroke-width="1.333" d="m13.365 7.341 7.289 6.803c1.247 1.164.558 3.255-1.138 3.449l-2.745.314a3.331 3.331 0 0 0-1.851.834l-1.582 1.424C12.051 21.323 10 20.41 10 18.678V8.802c0-1.749 2.086-2.655 3.365-1.462z"/></symbol><symbol id="icon-ellipse-ingredients" viewBox="0 0 32 32"><path d="M25.118 13.935c0 5.036-4.082 9.118-9.118 9.118s-9.118-4.082-9.118-9.118c0-5.036 4.082-9.118 9.118-9.118s9.118 4.082 9.118 9.118z"/><path stroke-width=".688" d="M24.774 13.935c0 4.846-3.928 8.774-8.774 8.774s-8.774-3.928-8.774-8.774c0-4.846 3.928-8.774 8.774-8.774s8.774 3.928 8.774 8.774z"/></symbol><symbol id="icon-ellipse-products" viewBox="0 0 32 32"><path d="M28.279 15.07c0 6.782-5.498 12.279-12.279 12.279S3.721 21.851 3.721 15.07C3.721 8.288 9.219 2.791 16 2.791S28.279 8.289 28.279 15.07z"/><path d="M28.279 15.07c0 6.782-5.498 12.279-12.279 12.279S3.721 21.851 3.721 15.07C3.721 8.288 9.219 2.791 16 2.791S28.279 8.289 28.279 15.07z"/></symbol><symbol id="icon-facebook" viewBox="0 0 16 32"><path d="M14.143 15.972h-4.034v14.865H3.997V15.972H1.09v-5.224h2.907V7.367c0-2.418 1.142-6.203 6.166-6.203l4.527.019v5.071h-3.285c-.539 0-1.296.271-1.296 1.424v3.075h4.567l-.534 5.219z"/></symbol><symbol id="icon-github" viewBox="0 0 32 32"><path d="M16 0C7.212 0 0 7.212 0 16c0 7.499 5.262 14.312 12.25 16v-5.293c-.692.152-1.33.156-2.034-.052-.946-.279-1.714-.909-2.284-1.869-.364-.613-1.008-1.278-1.68-1.23l-.165-1.868c1.453-.124 2.711.886 3.457 2.14.332.558.713.884 1.203 1.029.473.14.982.072 1.574-.137.149-1.186.692-1.63 1.102-2.255v-.001c-4.167-.622-5.828-2.832-6.488-4.578-.874-2.317-.405-5.212 1.14-7.041.03-.036.084-.129.063-.194-.708-2.139.155-3.909.187-4.097.817.242.95-.243 3.551 1.337l.449.27c.188.112.129.048.317.034A13.544 13.544 0 0 1 16 7.723c1.136.015 2.273.178 3.404.484l.145.015c-.013-.002.04-.009.127-.062 3.248-1.968 3.132-1.324 4.003-1.608.032.188.883 1.987.182 4.099-.095.291 2.816 2.956 1.203 7.235-.659 1.746-2.32 3.957-6.487 4.578v.001c.534.814 1.176 1.247 1.173 2.927V32C26.738 30.312 32 23.499 32 16c0-8.788-7.212-16-16-16z"/></symbol><symbol id="icon-ice-cream" viewBox="0 0 32 32"><path d="M16.108.107c.08.214.241 1.252.241 1.573 0 .797-.295 1.54-.837 2.122-.449.482-.897.75-1.975 1.185-1.198.489-1.694.783-2.256 1.339-.569.569-.904 1.192-1.024 1.921-.134.797 0 1.359.408 1.68l.208.161-.328.208c-.663.435-1.868 1.459-2.075 1.774-.402.603-.361 1.165.094 1.392l.214.107-.241.228c-.361.341-.435.576-.382 1.192.033.408.02.629-.074.964-.114.435-.114.442.033.75.147.301.562.683.937.843.181.08.187.107.228.723.02.355.053 1.486.08 2.517.02 1.031.067 1.975.107 2.089a.79.79 0 0 0 .274.361c.388.268.656.556.83.89.194.382.408 1.319 1.058 4.559l.455 2.276.281.268c.536.529 1.56.77 3.247.77 1.694 0 2.705-.234 3.24-.763l.288-.274.415-2.109c.917-4.613.997-4.867 1.714-5.436.221-.181.435-.402.475-.502.047-.114.094-.991.127-2.316.027-1.178.067-2.343.094-2.591l.04-.449.435-.328c.549-.422.763-.803.763-1.393-.007-.696-.462-1.459-1.292-2.142l-.395-.321.194-.274c.81-1.118.301-2.664-1.205-3.695l-.455-.315.167-.174c.743-.797.864-3.173.241-4.827-.375-.984-1.232-2.055-2.283-2.845C17.659.857 16.239 0 16.112 0c-.027 0-.027.047-.007.107zm1.928 2.336c.355.348.783.823.951 1.064.997 1.392 1.252 3.14.649 4.425-.241.522-.964 1.299-1.633 1.761-1.024.71-3.327 1.901-4.934 2.557-2.584 1.051-4.084 1.252-4.258.562-.067-.261.127-.469.951-1.018.743-.509 4.077-2.986 4.137-3.086.02-.027-.321.127-.75.341-1.453.736-2.142.596-2.109-.428.02-.743.556-1.587 1.299-2.069.187-.12.77-.388 1.305-.603 1.761-.71 2.296-1.071 2.892-1.962.355-.529.743-1.506.77-1.921.007-.147.034-.261.054-.261s.321.288.676.636zm1.828 7.606c.489.274.997.743 1.218 1.111.388.663.187 1.325-.649 2.169-.91.924-2.464 1.808-4.171 2.37-1.573.515-3.079.756-5.235.83l-1.339.047.87.054c1.125.074 3.3.007 4.144-.127 2.243-.355 4.151-1.064 5.516-2.042.308-.221.629-.402.716-.402.221 0 1.185.924 1.379 1.312.107.221.134.382.114.596-.1.89-1.185 1.366-3.802 1.68-3.2.382-7.384.007-9.172-.817-.844-.388-.984-.609-.77-1.198.067-.187.08-.408.054-.723-.033-.415-.027-.469.12-.623.335-.361.897-.569 2.959-1.091a28.11 28.11 0 0 0 2.176-.656c1.138-.415 3.274-1.493 4.264-2.156.93-.616 1.064-.643 1.607-.335zm-8.89 8.194c1.406.408 2.651.529 4.967.482 1.741-.034 2.812-.141 4.358-.415.315-.053.589-.1.623-.1.074 0 .053 2.571-.027 3.247-.087.716-.281 1.272-.489 1.406-.214.141-1.285.288-2.718.368-2.939.161-5.958 0-6.895-.375-.509-.207-.562-.475-.569-2.959 0-1.654.013-1.881.1-1.848.053.02.348.107.649.194zm1.586 5.69c.482.06 1.004.121 1.165.141l.288.034-.254.281c-.328.355-.83 1.064-1.011 1.426-.207.415-.274.442-.582.274l-.261-.147-.147-.91c-.08-.495-.167-.971-.187-1.051-.06-.174-.12-.174.991-.047zm7.137-.074c0 .013-.033.187-.067.382-.04.201-.208 1.292-.375 2.43-.341 2.377-.569 3.495-.777 3.869-.288.502-.977.797-2.095.89-.435.034-1.747-.053-1.821-.12-.053-.06 1.098-1.486 1.279-1.58.167-.094.214-.08.783.214.663.348.997.402.997.181s-.174-.435-.602-.73c-.395-.281-.536-.442-.536-.629 0-.053.194-.355.428-.669s.576-.817.75-1.118l.328-.542.301.04c.609.087.77.08.75-.053-.013-.067-.127-.261-.254-.422-.127-.167-.228-.335-.228-.368 0-.127.623-1.299.823-1.546.174-.214.315-.321.315-.228zm-4.184.536c.335.221 1.593 1.312 1.674 1.446.034.06-1.259 2.082-1.513 2.37-.027.034-.167-.033-.308-.141a22.133 22.133 0 0 0-1.165-.803l-.904-.596.542-.917c.964-1.613.944-1.587 1.151-1.587.107 0 .341.1.522.228zm2.537.241c-.234.288-.428.469-.509.469-.174 0-.455-.154-.93-.502l-.395-.288.79-.047c.428-.02.844-.047.917-.06.536-.087.536-.08.127.428zm-5.061 3.22c.616.241 1.66.81 1.962 1.064.214.174.214.187.127.402a6.675 6.675 0 0 1-.415.716c-.174.268-.375.602-.449.743-.214.415-.281.449-.723.328-.475-.141-.73-.382-.864-.817-.181-.609-.469-2.33-.435-2.598.013-.1.295-.04.797.161z"/></symbol><symbol id="icon-logo-hero" viewBox="0 0 34 32"><path d="M17.184 14.109c1.613-4.366-1.727-6.756-3.942-8.327-.423-.321-.847-.621-1.19-.895A4.161 4.161 0 0 1 10.718.576a.447.447 0 0 0-.132-.455.463.463 0 0 0-.466-.094 7.478 7.478 0 0 0-2.054 1.22 4.857 4.857 0 0 0-1.901 3.846 5.639 5.639 0 0 0-1.097 1.144 4.193 4.193 0 0 0-.809 2.681 5.3 5.3 0 0 0-1.613 4.987 1.433 1.433 0 0 0 .753 2.664h.03v2.483a.947.947 0 0 0 .953.95h.741l1.207 10.43a.952.952 0 0 0 .944.845h5.022a.96.96 0 0 0 .948-.844l1.207-10.43h.741a.947.947 0 0 0 .953-.95V16.57h.03a1.447 1.447 0 0 0 1.337-1.996 1.411 1.411 0 0 0-.316-.47l-.013.004zM6.315 6.188c.61 2.284 2.964 3.184 5.111 3.986a.463.463 0 0 0 .645-.617.467.467 0 0 0-.319-.227C9.44 8.456 7.26 7.641 7.095 5.306c-.039-.642.082-1.283.352-1.867s.68-1.093 1.194-1.481a6.874 6.874 0 0 1 1.033-.709 5.362 5.362 0 0 0 0 .878 4.994 4.994 0 0 0 1.786 3.476c.351.3.788.608 1.27.937 1.114.798 2.38 1.689 3.184 2.897a4.512 4.512 0 0 1 .462 4.285h-1.871c-3.857 0-8.29-1.064-9.167-4.045a3.414 3.414 0 0 1 .999-3.466l-.021-.021zm3.472 14.394 1.414 1.41-1.414 1.41-1.414-1.419 1.414-1.402zm3.243 3.704-1.169 1.165-1.414-1.41 1.414-1.406 1.228 1.22-.059.431zM9.787 27.52l-1.414-1.41 1.414-1.41 1.414 1.41-1.414 1.41zm-.648-3.471-1.414 1.41-1.177-1.174-.051-.422 1.228-1.22 1.414 1.406zM7.073 26.11l-.284.283-.072-.642.356.359zm-.148 1.444.8-.798 1.554 1.562a.72.72 0 0 0 .03.093H7.023l-.097-.857zm4.928-.798.8.798-.097.845h-2.35l1.647-1.643zm.932-.363-.284-.283.36-.359-.076.642zm.423-3.691-.707-.718.898-.895-.191 1.613zm-1.359-1.36-1.342-1.334h2.684l-1.342 1.334zm-4.128 0-1.342-1.334h2.684l-1.342 1.334zm4.572 9.02H7.276c-.008-.001-.015-.004-.02-.01s-.009-.012-.01-.02l-.119-1.013h5.318l-.114 1.013c-.001.008-.005.016-.011.021s-.014.008-.023.008h-.004zm3.883-14.711h-1.474a.47.47 0 0 0-.355.117.46.46 0 0 0 .355.797h.525v2.483c-.001.008-.005.016-.011.021s-.014.008-.023.008H4.366c-.008 0-.016-.003-.023-.008s-.01-.013-.011-.021v-2.483h8.388a.46.46 0 0 0 0-.916H3.405a.516.516 0 0 1-.527-.31.53.53 0 0 1 0-.422.533.533 0 0 1 .312-.285.506.506 0 0 1 .215-.025h.961a.46.46 0 0 0 0-.916h-.847a4.51 4.51 0 0 1 .923-3.674c.296.921 1.059 2.179 2.964 3.18 1.791.933 4.162 1.41 7.046 1.41h1.694a.516.516 0 0 1 .527.31.526.526 0 0 1 0 .422.533.533 0 0 1-.312.285.506.506 0 0 1-.215.025h.03zM19.859 28.392l-.342.525.007.004.335-.529zm3.682.177.626-.014-.016-.725-.715.121.105.617zm.043 1.926.159.606.478-.126-.011-.494-.626.014zm-4.832.092.141-.61-.004-.001-.137.611zm-2.385-1.064.405-.478-.001-.001-.404.478zm-.862-1.957.626.003v-.003h-.626zm.299-1.37-.562-.276v.001l.562.276zm1.921-1.639.222.586.002-.001-.224-.585zm6.152-.159.624.049.041-.529-.515-.128-.151.608zm-.153 1.963-.117.615.687.13.054-.697-.624-.049zm-1.67-.804c-.94 0-1.73.1-2.307.354-.296.13-.565.313-.761.571a1.474 1.474 0 0 0-.298.905h1.252c0-.073.018-.114.044-.149.032-.043.106-.111.267-.182.336-.148.916-.248 1.803-.248v-1.252zm-3.366 1.832c0 .644.289 1.176.829 1.528l.684-1.049a.508.508 0 0 1-.26-.478h-1.252zm.836 1.532c.512.324 1.186.446 1.944.446v-1.253c-.654 0-1.051-.111-1.273-.251l-.67 1.058zm1.943.445c.743 0 1.469-.06 2.178-.18l-.21-1.235c-.637.108-1.293.162-1.968.162v1.253zm1.448-.783.043 1.926 1.252-.028-.043-1.926-1.252.028zm.509 1.307a9.327 9.327 0 0 1-2.373.285v1.252c.96 0 1.858-.107 2.691-.326l-.319-1.211zm-2.372.285c-.885 0-1.601-.07-2.159-.198l-.281 1.221c.681.157 1.498.23 2.44.23v-1.252zm-2.163-.199c-.598-.134-1.029-.276-1.317-.416l-.55 1.125c.413.202.952.37 1.594.513l.273-1.222zm-1.318-.416a3.813 3.813 0 0 1-.799-.514l-.81.955c.313.265.667.493 1.06.685l.55-1.125zm-.8-.515c-.426-.36-.644-.83-.64-1.476l-1.252-.006c-.005.985.352 1.82 1.084 2.438l.809-.957zm-.64-1.479c0-.421.083-.782.236-1.094l-1.125-.551a3.701 3.701 0 0 0-.364 1.645h1.252zm.235-1.094c.285-.579.788-1.029 1.581-1.33l-.444-1.171c-1.034.392-1.811 1.035-2.26 1.948l1.124.553zm1.583-1.33c.833-.32 1.763-.484 2.797-.484v-1.253c-1.168 0-2.252.186-3.246.568l.449 1.169zm2.797-.485c1.054 0 2.047.117 2.981.348l.301-1.216a13.586 13.586 0 0 0-3.282-.385v1.253zm2.507-.308-.153 1.963 1.249.097.153-1.963-1.249-.097zm.588 1.397a9.646 9.646 0 0 0-1.786-.188v1.252c.441 0 .957.053 1.553.166l.233-1.231zm6.11 1-.003.626.636.004-.007-.636-.626.007zm-.269-.813-.426.459.005.005.421-.464zm-1.559.061.434.452.005-.004-.438-.447zm-.38.74-.618-.102-.119.724.733.004.003-.626zm4.606 3.339.378.499.225-.171.021-.282-.624-.047zm-1.352.502-.135-.612-.004.001.138.611zm-4.697-.171-.214.589.005.002.208-.59zm-1.07-.569-.389.491.008.006.381-.497zm-.716-.899-.561.278.001.003.56-.28zm.734-3.798.416.468-.417-.467zm5.725-.679.25-.574-.006-.003-.245.576zm1.437 1.321-.563.274.002.003.562-.277zm.244 1.095.625.045.002-.023v-.023h-.626zm-.073 1.009-.003.626.585.003.042-.584-.625-.045zm-4.96-.025.003-.626-.817-.004.208.79.606-.16zm.71.875-.308.545.003.001.306-.547zm3.803-.214v-.626h-.125l-.116.048.241.578zm.331 0 .624.047.05-.673h-.675v.626zm-1.888-1.78c-.005-.453-.109-.939-.475-1.271l-.841.928c-.007-.007.007.001.025.055.019.057.037.153.039.301l1.252-.013zm-.469-1.266c-.329-.305-.76-.406-1.184-.406v1.252c.244 0 .318.058.332.071l.852-.918zm-1.184-.406c-.466 0-.9.146-1.239.479l.877.895c.068-.067.169-.121.363-.121v-1.252zm-1.235.474a1.91 1.91 0 0 0-.563 1.09l1.236.203a.666.666 0 0 1 .195-.39l-.867-.904zm.051 1.818 2.208.012.007-1.253-2.208-.012-.007 1.253zm4.23 2.214c-.137.104-.472.249-1.108.389l.269 1.223c.661-.145 1.227-.335 1.595-.614l-.757-.998zm-1.111.39a7.946 7.946 0 0 1-1.752.205v1.252c.662 0 1.338-.079 2.028-.236l-.277-1.222zm-1.752.205c-.59 0-1.076-.028-1.464-.08l-.167 1.241c.461.062 1.006.091 1.631.091v-1.252zm-1.464-.08a5.672 5.672 0 0 1-1.135-.276l-.417 1.181c.455.161.917.273 1.385.336l.167-1.241zm-1.129-.274a3.363 3.363 0 0 1-.903-.477l-.762.994c.357.274.772.492 1.238.661l.427-1.177zm-.895-.471a1.987 1.987 0 0 1-.544-.688l-1.12.56c.221.441.515.815.887 1.11l.777-.982zm-.543-.686c-.132-.266-.21-.609-.21-1.05h-1.253c0 .587.105 1.129.34 1.605l1.123-.555zm-.211-1.049c0-.441.079-.83.23-1.176l-1.149-.499a4.163 4.163 0 0 0-.333 1.674h1.253zm.23-1.176c.158-.364.351-.633.57-.827l-.833-.935a3.56 3.56 0 0 0-.886 1.264l1.149.499zm.57-.828c.673-.6 1.7-.948 3.179-.948v-1.253c-1.66 0-3.031.39-4.013 1.266l.834.935zm3.179-.948c.664 0 1.29.126 1.884.378l.489-1.153a6.018 6.018 0 0 0-2.373-.478v1.253zm1.878.376c.554.242.912.585 1.124 1.021l1.126-.548c-.359-.738-.959-1.276-1.75-1.621l-.501 1.148zm1.126 1.024c.117.237.18.506.18.817h1.252c0-.487-.1-.948-.309-1.372l-1.123.555zm.182.772-.073 1.009 1.249.091.073-1.009-1.249-.091zm.554.429-4.96-.024-.006 1.252 4.96.024.006-1.252zm-5.569.761c.146.555.505.976 1.007 1.26l.616-1.09c-.248-.14-.363-.302-.412-.489l-1.211.319zm1.01 1.262c.508.284 1.143.398 1.853.398v-1.252c-.595 0-.991-.098-1.242-.238l-.611 1.093zm1.853.397c.762 0 1.598-.206 2.497-.58l-.481-1.156c-.805.335-1.473.484-2.016.484v1.252zm2.256-.532h.33v-1.252h-.33v1.252zm-.294-.673-.116 1.553 1.249.093.116-1.553-1.249-.093z"/></symbol><symbol id="icon-menu" viewBox="0 0 32 32"><path d="M26.733 14.667H5.266c-.7 0-1.267.567-1.267 1.267v.133c0 .7.567 1.267 1.267 1.267h21.467c.7 0 1.267-.567 1.267-1.267v-.133c0-.7-.567-1.267-1.267-1.267zM26.733 21.333H5.266c-.7 0-1.267.567-1.267 1.267v.133c0 .7.567 1.267 1.267 1.267h21.467c.7 0 1.267-.567 1.267-1.267V22.6c0-.7-.567-1.267-1.267-1.267zM26.733 8H5.266c-.7 0-1.267.567-1.267 1.267V9.4c0 .7.567 1.267 1.267 1.267h21.467c.7 0 1.267-.567 1.267-1.267v-.133C28 8.567 27.433 8 26.733 8z"/></symbol><symbol id="icon-rectangle-ingredients" viewBox="0 0 23 32"><path stroke-width=".711" d="M11.556.356c6.186 0 11.2 5.014 11.2 11.2v8.889c0 6.186-5.014 11.2-11.2 11.2s-11.2-5.014-11.2-11.2v-8.889c0-6.186 5.014-11.2 11.2-11.2z"/></symbol><symbol id="icon-telegram" viewBox="0 0 44 32"><path d="m17.346 21.048-.675 8.86c.966 0 1.384-.387 1.885-.852l4.527-4.038 9.381 6.412c1.72.895 2.933.424 3.397-1.477l6.158-26.929.002-.002c.546-2.374-.92-3.302-2.596-2.72L3.231 13.235c-2.47.895-2.433 2.18-.42 2.762l9.253 2.686L33.558 6.131c1.011-.625 1.931-.279 1.175.346l-17.386 14.57z"/></symbol><symbol id="icon-weight" viewBox="0 0 32 32"><path d="M14.177.547c-3.974.589-7.247 2.796-8.451 5.685-.384.913-.488 1.473-.488 2.573.007.812.037 1.114.162 1.552.259.863.443 1.301.827 1.919l.355.575-.399.489c-3.154 3.924-3.502 9.444-.872 13.793.982 1.632 2.585 3.234 4.152 4.169l.465.273 12.743-.108.303-.165c1.056-.597 2.549-1.926 3.383-3.004a12.61 12.61 0 0 0 2.423-5.621c.118-.74.118-2.932-.007-3.63-.377-2.149-1.182-3.989-2.453-5.621-.244-.309-.436-.568-.436-.589 0-.014.133-.237.288-.489a7.762 7.762 0 0 0 .864-1.962c.199-.719.199-2.516 0-3.234-.709-2.552-2.837-4.679-5.843-5.851C20.351.97 18.91.618 17.98.503c-.864-.101-2.999-.079-3.804.043zm4.499 1.171c3.945.769 6.833 3.184 7.365 6.16.118.668.044 1.804-.155 2.437-.199.618-.569 1.344-1.005 1.962-.177.252-.325.539-.325.633s.155.338.377.582c1.847 2.048 2.822 4.614 2.822 7.389-.007 3.155-1.219 5.922-3.553 8.093-.399.374-.968.841-1.271 1.042l-.554.374-12.211.05-.473-.302c-1.714-1.114-3.258-2.954-4.115-4.909-1.079-2.472-1.189-5.34-.31-7.913.465-1.337 1.086-2.429 2.031-3.579.384-.46.561-.733.561-.863 0-.108-.192-.46-.443-.827-.886-1.287-1.248-2.717-1.034-4.068.222-1.366.842-2.487 1.987-3.601 1.492-1.445 3.575-2.401 6.02-2.76 1.012-.151 3.25-.093 4.285.101z"/><path d="M14.51 2.983c-3.029.496-5.4 2.178-6.176 4.384-.177.496-.207.69-.207 1.402s.03.906.207 1.402c.111.316.318.755.458.977.384.618.554.64 1.315.18a11.949 11.949 0 0 1 3.804-1.488c.916-.187 2.674-.259 3.671-.144 1.559.18 3.25.74 4.602 1.538.384.223.776.41.872.41.561 0 1.278-1.617 1.278-2.875 0-2.796-2.674-5.189-6.464-5.786-.805-.129-2.585-.129-3.361 0zm3.656 1.15c1.271.273 2.438.791 3.317 1.473 1.182.913 1.817 2.185 1.714 3.414-.037.489-.222 1.15-.332 1.222-.029.014-.443-.158-.916-.388a14.721 14.721 0 0 0-3.228-1.1c-.687-.144-.975-.165-2.512-.158-1.514 0-1.832.022-2.489.158a13.254 13.254 0 0 0-3.117 1.064c-1.101.525-1.042.532-1.241-.115-.258-.841-.096-1.955.406-2.796.266-.446.997-1.186 1.529-1.553 1.012-.697 1.899-1.013 3.804-1.358.391-.072 2.563.029 3.066.137zM16.962 13.405c-.207.259-.207.503.007.712.14.137.281.173.79.208.99.072 1.935.359 2.785.848.606.359 1.529 1.229 1.943 1.854.613.898 1.034 2.185 1.034 3.134 0 .331.029.431.185.575.236.237.547.237.776 0 .163-.165.17-.208.125-.913-.207-3.479-3.184-6.382-6.744-6.577l-.739-.043-.163.201z"/></symbol><symbol id="icon-hero-dots-tablet" viewBox="0 0 356 32"><path d="M306.022 29.57c0 1.021-.832 1.849-1.858 1.849s-1.858-.828-1.858-1.849.832-1.849 1.858-1.849 1.858.828 1.858 1.849zM309.737 27.259c0 1.021-.832 1.849-1.858 1.849s-1.858-.828-1.858-1.849.832-1.849 1.858-1.849 1.858.828 1.858 1.849zM314.38 24.484c0 1.021-.832 1.849-1.858 1.849s-1.858-.828-1.858-1.849.832-1.849 1.858-1.849 1.858.828 1.858 1.849zM318.095 22.173c0 1.021-.832 1.849-1.858 1.849s-1.858-.828-1.858-1.849.832-1.849 1.858-1.849 1.858.828 1.858 1.849zM315.773 28.646c0 1.021-.832 1.849-1.858 1.849s-1.858-.828-1.858-1.849.832-1.849 1.858-1.849 1.858.828 1.858 1.849zM319.489 26.334c0 1.021-.832 1.849-1.858 1.849s-1.858-.828-1.858-1.849.832-1.849 1.858-1.849 1.858.828 1.858 1.849zM324.132 23.56c0 1.021-.832 1.849-1.858 1.849s-1.858-.828-1.858-1.849.832-1.849 1.858-1.849 1.858.828 1.858 1.849zM327.847 21.248c0 1.021-.832 1.849-1.858 1.849s-1.858-.828-1.858-1.849.832-1.849 1.858-1.849 1.858.828 1.858 1.849zM324.132 27.721c0 1.021-.832 1.849-1.858 1.849s-1.858-.828-1.858-1.849.832-1.849 1.858-1.849 1.858.828 1.858 1.849zM327.847 25.409c0 1.021-.832 1.849-1.858 1.849s-1.858-.828-1.858-1.849.832-1.849 1.858-1.849 1.858.828 1.858 1.849zM332.491 22.635c0 1.021-.832 1.849-1.858 1.849s-1.858-.828-1.858-1.849.832-1.849 1.858-1.849 1.858.828 1.858 1.849zM336.206 20.323c0 1.021-.832 1.849-1.858 1.849s-1.858-.828-1.858-1.849.832-1.849 1.858-1.849 1.858.828 1.858 1.849zM332.491 26.334c0 1.021-.832 1.849-1.858 1.849s-1.858-.828-1.858-1.849.832-1.849 1.858-1.849 1.858.828 1.858 1.849zM336.206 24.022c0 1.021-.832 1.849-1.858 1.849s-1.858-.828-1.858-1.849.832-1.849 1.858-1.849 1.858.828 1.858 1.849zM340.85 21.248c0 1.021-.832 1.849-1.858 1.849s-1.858-.828-1.858-1.849.832-1.849 1.858-1.849 1.858.828 1.858 1.849zM344.565 18.936c0 1.021-.832 1.849-1.858 1.849s-1.858-.828-1.858-1.849.832-1.849 1.858-1.849 1.858.828 1.858 1.849zM334.813 29.57c0 1.021-.832 1.849-1.858 1.849s-1.858-.828-1.858-1.849.832-1.849 1.858-1.849 1.858.828 1.858 1.849zM338.528 27.259c0 1.021-.832 1.849-1.858 1.849s-1.858-.828-1.858-1.849.832-1.849 1.858-1.849 1.858.828 1.858 1.849zM343.636 30.033c0 1.021-.832 1.849-1.858 1.849s-1.858-.828-1.858-1.849.832-1.849 1.858-1.849 1.858.828 1.858 1.849zM343.171 24.484c0 1.021-.832 1.849-1.858 1.849s-1.858-.828-1.858-1.849.832-1.849 1.858-1.849 1.858.828 1.858 1.849zM348.279 27.259c0 1.021-.832 1.849-1.858 1.849s-1.858-.828-1.858-1.849.832-1.849 1.858-1.849 1.858.828 1.858 1.849zM352.459 30.033c0 1.021-.832 1.849-1.858 1.849s-1.858-.828-1.858-1.849.832-1.849 1.858-1.849 1.858.828 1.858 1.849zM346.887 22.173c0 1.021-.832 1.849-1.858 1.849s-1.858-.828-1.858-1.849.832-1.849 1.858-1.849 1.858.828 1.858 1.849zM352.459 24.947c0 1.021-.832 1.849-1.858 1.849s-1.858-.828-1.858-1.849.832-1.849 1.858-1.849 1.858.828 1.858 1.849zM356.174 27.721c0 1.021-.832 1.849-1.858 1.849s-1.858-.828-1.858-1.849.832-1.849 1.858-1.849 1.858.828 1.858 1.849zM288.376 10.151c0 1.021-.832 1.849-1.858 1.849s-1.858-.828-1.858-1.849.832-1.849 1.858-1.849 1.858.828 1.858 1.849zM292.091 7.839c0 1.021-.832 1.849-1.858 1.849s-1.858-.828-1.858-1.849.832-1.849 1.858-1.849 1.858.828 1.858 1.849zM296.734 5.065c0 1.021-.832 1.849-1.858 1.849s-1.858-.828-1.858-1.849.832-1.849 1.858-1.849 1.858.828 1.858 1.849zM300.449 2.753c0 1.021-.832 1.849-1.858 1.849s-1.858-.828-1.858-1.849.832-1.849 1.858-1.849 1.858.828 1.858 1.849zM280.946 9.689c0 1.021-.832 1.849-1.858 1.849s-1.858-.828-1.858-1.849.832-1.849 1.858-1.849 1.858.828 1.858 1.849zM284.661 7.377c0 1.021-.832 1.849-1.858 1.849s-1.858-.828-1.858-1.849.832-1.849 1.858-1.849 1.858.828 1.858 1.849zM289.304 4.603c0 1.021-.832 1.849-1.858 1.849s-1.858-.828-1.858-1.849.832-1.849 1.858-1.849 1.858.828 1.858 1.849zM293.019 2.291c0 1.021-.832 1.849-1.858 1.849s-1.858-.828-1.858-1.849.832-1.849 1.858-1.849 1.858.828 1.858 1.849zM297.198 29.57c0 1.021-.832 1.849-1.858 1.849s-1.858-.828-1.858-1.849.832-1.849 1.858-1.849 1.858.828 1.858 1.849zM300.914 27.259c0 1.021-.832 1.849-1.858 1.849s-1.858-.828-1.858-1.849.832-1.849 1.858-1.849 1.858.828 1.858 1.849zM305.557 24.484c0 1.021-.832 1.849-1.858 1.849s-1.858-.828-1.858-1.849.832-1.849 1.858-1.849 1.858.828 1.858 1.849zM309.272 22.173c0 1.021-.832 1.849-1.858 1.849s-1.858-.828-1.858-1.849.832-1.849 1.858-1.849 1.858.828 1.858 1.849zM292.555 28.183c0 1.021-.832 1.849-1.858 1.849s-1.858-.828-1.858-1.849.832-1.849 1.858-1.849 1.858.828 1.858 1.849z"/><path d="M296.27 25.872c0 1.021-.832 1.849-1.858 1.849s-1.858-.828-1.858-1.849.832-1.849 1.858-1.849 1.858.828 1.858 1.849zM300.914 23.097c0 1.021-.832 1.849-1.858 1.849s-1.858-.828-1.858-1.849.832-1.849 1.858-1.849 1.858.828 1.858 1.849zM304.628 20.785c0 1.021-.832 1.849-1.858 1.849s-1.858-.828-1.858-1.849.832-1.849 1.858-1.849 1.858.828 1.858 1.849zM294.413 21.71c0 1.021-.832 1.849-1.858 1.849s-1.858-.828-1.858-1.849.832-1.849 1.858-1.849 1.858.828 1.858 1.849zM298.127 19.398c0 1.021-.832 1.849-1.858 1.849s-1.858-.828-1.858-1.849.832-1.849 1.858-1.849 1.858.828 1.858 1.849zM302.771 16.624c0 1.021-.832 1.849-1.858 1.849s-1.858-.828-1.858-1.849.832-1.849 1.858-1.849 1.858.828 1.858 1.849zM306.486 14.312c0 1.021-.832 1.849-1.858 1.849s-1.858-.828-1.858-1.849.832-1.849 1.858-1.849 1.858.828 1.858 1.849zM294.413 11.076c0 1.021-.832 1.849-1.858 1.849s-1.858-.828-1.858-1.849.832-1.849 1.858-1.849 1.858.828 1.858 1.849zM298.127 8.764c0 1.021-.832 1.849-1.858 1.849s-1.858-.828-1.858-1.849.832-1.849 1.858-1.849 1.858.828 1.858 1.849zM302.771 5.99c0 1.021-.832 1.849-1.858 1.849s-1.858-.828-1.858-1.849.832-1.849 1.858-1.849 1.858.828 1.858 1.849zM306.486 3.678c0 1.021-.832 1.849-1.858 1.849s-1.858-.828-1.858-1.849.832-1.849 1.858-1.849 1.858.828 1.858 1.849zM293.484 17.087c0 1.021-.832 1.849-1.858 1.849s-1.858-.828-1.858-1.849.832-1.849 1.858-1.849 1.858.828 1.858 1.849zM297.198 14.775c0 1.021-.832 1.849-1.858 1.849s-1.858-.828-1.858-1.849.832-1.849 1.858-1.849 1.858.828 1.858 1.849zM301.842 12.001c0 1.021-.832 1.849-1.858 1.849s-1.858-.828-1.858-1.849.832-1.849 1.858-1.849 1.858.828 1.858 1.849zM305.557 9.689c0 1.021-.832 1.849-1.858 1.849s-1.858-.828-1.858-1.849.832-1.849 1.858-1.849 1.858.828 1.858 1.849zM274.909 8.302c0 1.021-.728 1.849-1.625 1.849s-1.625-.828-1.625-1.849.728-1.849 1.625-1.849 1.625.828 1.625 1.849zM278.624 5.99c0 1.021-.728 1.849-1.625 1.849s-1.625-.828-1.625-1.849.728-1.849 1.625-1.849 1.625.828 1.625 1.849zM283.267 3.216c0 1.021-.728 1.849-1.625 1.849s-1.625-.828-1.625-1.849.728-1.849 1.625-1.849 1.625.828 1.625 1.849zM281.178 10.151c.898 0 1.625-.828 1.625-1.849s-.728-1.849-1.625-1.849-1.625.828-1.625 1.849.728 1.849 1.625 1.849zM3.715 27.362a1.856 1.856 0 1 1-3.712-.002 1.856 1.856 0 0 1 3.712.002zM7.43 25.043a1.856 1.856 0 1 1-3.712-.002 1.856 1.856 0 0 1 3.712.002zM12.074 22.261a1.856 1.856 0 1 1-3.712-.002 1.856 1.856 0 0 1 3.712.002zM15.789 19.942a1.856 1.856 0 1 1-3.712-.002 1.856 1.856 0 0 1 3.712.002zM26.005 28.29c0 1.025-.832 1.855-1.858 1.855s-1.858-.831-1.858-1.855c0-1.025.832-1.855 1.858-1.855s1.858.831 1.858 1.855zM29.72 25.971c0 1.025-.832 1.855-1.858 1.855s-1.858-.831-1.858-1.855c0-1.025.832-1.855 1.858-1.855s1.858.831 1.858 1.855zM34.364 23.188c0 1.025-.832 1.855-1.858 1.855s-1.858-.831-1.858-1.855c0-1.025.832-1.855 1.858-1.855s1.858.831 1.858 1.855zM38.079 20.87c0 1.025-.832 1.855-1.858 1.855s-1.858-.831-1.858-1.855c0-1.025.832-1.855 1.858-1.855s1.858.831 1.858 1.855zM34.364 26.899c0 1.025-.728 1.855-1.625 1.855s-1.625-.831-1.625-1.855c0-1.025.728-1.855 1.625-1.855s1.625.831 1.625 1.855z"/><path d="M38.078 24.58c0 1.025-.728 1.855-1.625 1.855s-1.625-.831-1.625-1.855c0-1.025.728-1.855 1.625-1.855s1.625.831 1.625 1.855zM42.258 22.261c0 1.025-.728 1.855-1.625 1.855s-1.625-.831-1.625-1.855c0-1.025.728-1.855 1.625-1.855s1.625.831 1.625 1.855zM46.437 19.942c0 1.025-.728 1.855-1.625 1.855s-1.625-.831-1.625-1.855c0-1.025.728-1.855 1.625-1.855s1.625.831 1.625 1.855zM51.081 16.232c0 1.025-.728 1.855-1.625 1.855s-1.625-.831-1.625-1.855c0-1.025.728-1.855 1.625-1.855s1.625.831 1.625 1.855zM41.329 18.087c0 1.025-.728 1.855-1.625 1.855s-1.625-.831-1.625-1.855c0-1.025.728-1.855 1.625-1.855s1.625.831 1.625 1.855zM17.646 28.29a1.856 1.856 0 1 1-3.712-.002 1.856 1.856 0 0 1 3.712.002zM21.361 25.971a1.858 1.858 0 0 1-3.715 0c0-1.025.832-1.855 1.858-1.855s1.858.831 1.858 1.855zM26.005 23.188c0 1.025-.832 1.855-1.858 1.855s-1.858-.831-1.858-1.855c0-1.025.832-1.855 1.858-1.855s1.858.831 1.858 1.855zM29.72 20.87c0 1.025-.832 1.855-1.858 1.855s-1.858-.831-1.858-1.855c0-1.025.832-1.855 1.858-1.855s1.858.831 1.858 1.855zM10.216 27.826a1.856 1.856 0 1 1-3.712-.002 1.856 1.856 0 0 1 3.712.002zM13.931 25.507a1.856 1.856 0 1 1-3.712-.002 1.856 1.856 0 0 1 3.712.002zM18.575 22.725c0 1.025-.832 1.855-1.858 1.855a1.856 1.856 0 1 1 0-3.71c1.025 0 1.858.831 1.858 1.855zM22.29 20.406c0 1.025-.832 1.855-1.858 1.855s-1.858-.831-1.858-1.855c0-1.025.832-1.855 1.858-1.855s1.858.831 1.858 1.855z"/></symbol><symbol id="icon-hero-dots-480" viewBox="0 0 203 32"><path d="M155.222 29.617c0 .982-.739 1.778-1.65 1.778s-1.65-.796-1.65-1.778.739-1.778 1.65-1.778 1.65.796 1.65 1.778zM158.798 27.245c0 .982-.739 1.778-1.65 1.778s-1.65-.796-1.65-1.778.739-1.778 1.65-1.778 1.65.796 1.65 1.778zM162.922 24.578c0 .982-.739 1.778-1.65 1.778s-1.65-.796-1.65-1.778.739-1.778 1.65-1.778 1.65.796 1.65 1.778zM166.773 22.207c0 .982-.739 1.778-1.65 1.778s-1.65-.796-1.65-1.778.739-1.778 1.65-1.778 1.65.796 1.65 1.778zM164.572 28.431c0 .982-.739 1.778-1.65 1.778s-1.65-.796-1.65-1.778.739-1.778 1.65-1.778 1.65.796 1.65 1.778zM168.147 26.06c0 .982-.739 1.778-1.65 1.778s-1.65-.796-1.65-1.778.739-1.778 1.65-1.778 1.65.796 1.65 1.778zM172.273 23.392c0 .982-.739 1.778-1.65 1.778s-1.65-.796-1.65-1.778.739-1.778 1.65-1.778 1.65.796 1.65 1.778zM176.123 21.021c0 .982-.739 1.778-1.65 1.778s-1.65-.796-1.65-1.778.739-1.778 1.65-1.778 1.65.796 1.65 1.778zM172.549 27.542c0 .982-.739 1.778-1.65 1.778s-1.65-.796-1.65-1.778.739-1.778 1.65-1.778 1.65.796 1.65 1.778zM176.125 25.171c0 .982-.739 1.778-1.65 1.778s-1.65-.796-1.65-1.778.739-1.778 1.65-1.778 1.65.796 1.65 1.778zM180.25 22.503c0 .982-.739 1.778-1.65 1.778s-1.65-.796-1.65-1.778.739-1.778 1.65-1.778 1.65.796 1.65 1.778zM184.099 20.132c0 .982-.739 1.778-1.65 1.778s-1.65-.796-1.65-1.778.739-1.778 1.65-1.778 1.65.796 1.65 1.778zM180.248 26.357c0 .982-.739 1.778-1.65 1.778s-1.65-.796-1.65-1.778.739-1.778 1.65-1.778 1.65.796 1.65 1.778zM183.823 23.985c0 .982-.739 1.778-1.65 1.778s-1.65-.796-1.65-1.778.739-1.778 1.65-1.778 1.65.796 1.65 1.778zM187.949 21.318c0 .982-.739 1.778-1.65 1.778s-1.65-.796-1.65-1.778.739-1.778 1.65-1.778 1.65.796 1.65 1.778zM191.799 18.947c0 .982-.739 1.778-1.65 1.778s-1.65-.796-1.65-1.778.739-1.778 1.65-1.778 1.65.796 1.65 1.778zM182.725 29.617c0 .982-.739 1.778-1.65 1.778s-1.65-.796-1.65-1.778.739-1.778 1.65-1.778 1.65.796 1.65 1.778zM186.3 27.245c0 .982-.739 1.778-1.65 1.778s-1.65-.796-1.65-1.778.739-1.778 1.65-1.778 1.65.796 1.65 1.778zM191.25 29.913c0 .982-.739 1.778-1.65 1.778s-1.65-.796-1.65-1.778.739-1.778 1.65-1.778 1.65.796 1.65 1.778zM190.426 24.578c0 .982-.739 1.778-1.65 1.778s-1.65-.796-1.65-1.778.739-1.778 1.65-1.778 1.65.796 1.65 1.778zM195.376 27.245c0 .982-.739 1.778-1.65 1.778s-1.65-.796-1.65-1.778.739-1.778 1.65-1.778 1.65.796 1.65 1.778zM199.226 29.913c0 .982-.739 1.778-1.65 1.778s-1.65-.796-1.65-1.778.739-1.778 1.65-1.778 1.65.796 1.65 1.778zM194.275 22.207c0 .982-.739 1.778-1.65 1.778s-1.65-.796-1.65-1.778.739-1.778 1.65-1.778 1.65.796 1.65 1.778zM199.226 24.874c0 .982-.739 1.778-1.65 1.778s-1.65-.796-1.65-1.778.739-1.778 1.65-1.778 1.65.796 1.65 1.778zM203.077 27.542c0 .982-.739 1.778-1.65 1.778s-1.65-.796-1.65-1.778.739-1.778 1.65-1.778 1.65.796 1.65 1.778zM138.448 10.055c0 .982-.739 1.778-1.65 1.778s-1.65-.796-1.65-1.778.739-1.778 1.65-1.778 1.65.796 1.65 1.778zM142.022 7.684c0 .982-.739 1.778-1.65 1.778s-1.65-.796-1.65-1.778.739-1.778 1.65-1.778 1.65.796 1.65 1.778zM146.149 5.016c0 .982-.739 1.778-1.65 1.778s-1.65-.796-1.65-1.778.739-1.778 1.65-1.778 1.65.796 1.65 1.778zM149.997 2.645c0 .982-.739 1.778-1.65 1.778s-1.65-.796-1.65-1.778.739-1.778 1.65-1.778 1.65.796 1.65 1.778zM131.571 9.758c0 .982-.739 1.778-1.65 1.778s-1.65-.796-1.65-1.778.739-1.778 1.65-1.778 1.65.796 1.65 1.778zM135.145 7.387c0 .982-.739 1.778-1.65 1.778s-1.65-.796-1.65-1.778.739-1.778 1.65-1.778 1.65.796 1.65 1.778zM139.271 4.72c0 .982-.739 1.778-1.65 1.778s-1.65-.796-1.65-1.778.739-1.778 1.65-1.778 1.65.796 1.65 1.778zM143.12 2.349c0 .982-.739 1.778-1.65 1.778s-1.65-.796-1.65-1.778.739-1.778 1.65-1.778 1.65.796 1.65 1.778zM146.971 29.617c0 .982-.739 1.778-1.65 1.778s-1.65-.796-1.65-1.778.739-1.778 1.65-1.778 1.65.796 1.65 1.778zM150.546 27.245c0 .982-.739 1.778-1.65 1.778s-1.65-.796-1.65-1.778.739-1.778 1.65-1.778 1.65.796 1.65 1.778zM154.672 24.578c0 .982-.739 1.778-1.65 1.778s-1.65-.796-1.65-1.778.739-1.778 1.65-1.778 1.65.796 1.65 1.778zM158.522 22.207c0 .982-.739 1.778-1.65 1.778s-1.65-.796-1.65-1.778.739-1.778 1.65-1.778 1.65.796 1.65 1.778zM142.571 27.838c0 .982-.739 1.778-1.65 1.778s-1.65-.796-1.65-1.778.739-1.778 1.65-1.778 1.65.796 1.65 1.778zM146.146 25.467c0 .982-.739 1.778-1.65 1.778s-1.65-.796-1.65-1.778.739-1.778 1.65-1.778 1.65.796 1.65 1.778zM150.272 22.799c0 .982-.739 1.778-1.65 1.778s-1.65-.796-1.65-1.778.739-1.778 1.65-1.778 1.65.796 1.65 1.778zM154.121 20.429c0 .982-.739 1.778-1.65 1.778s-1.65-.796-1.65-1.778.739-1.778 1.65-1.778 1.65.796 1.65 1.778zM144.222 21.614c0 .982-.739 1.778-1.65 1.778s-1.65-.796-1.65-1.778.739-1.778 1.65-1.778 1.65.796 1.65 1.778zM147.796 19.243c0 .982-.739 1.778-1.65 1.778s-1.65-.796-1.65-1.778.739-1.778 1.65-1.778 1.65.796 1.65 1.778zM151.923 16.575c0 .982-.739 1.778-1.65 1.778s-1.65-.796-1.65-1.778.739-1.778 1.65-1.778 1.65.796 1.65 1.778zM155.772 14.204c0 .982-.739 1.778-1.65 1.778s-1.65-.796-1.65-1.778.739-1.778 1.65-1.778 1.65.796 1.65 1.778zM144.222 11.24c0 .982-.739 1.778-1.65 1.778s-1.65-.796-1.65-1.778.739-1.778 1.65-1.778 1.65.796 1.65 1.778zM147.796 8.869c0 .982-.739 1.778-1.65 1.778s-1.65-.796-1.65-1.778.739-1.778 1.65-1.778 1.65.796 1.65 1.778zM151.923 6.202c0 .982-.739 1.778-1.65 1.778s-1.65-.796-1.65-1.778.739-1.778 1.65-1.778 1.65.796 1.65 1.778zM155.772 3.83c0 .982-.739 1.778-1.65 1.778s-1.65-.796-1.65-1.778.739-1.778 1.65-1.778 1.65.796 1.65 1.778zM143.397 16.872c0 .982-.739 1.778-1.65 1.778s-1.65-.796-1.65-1.778.739-1.778 1.65-1.778 1.65.796 1.65 1.778zM146.972 14.501c0 .982-.739 1.778-1.65 1.778s-1.65-.796-1.65-1.778.739-1.778 1.65-1.778 1.65.796 1.65 1.778zM151.097 11.833c0 .982-.739 1.778-1.65 1.778s-1.65-.796-1.65-1.778.739-1.778 1.65-1.778 1.65.796 1.65 1.778zM154.947 9.462c0 .982-.739 1.778-1.65 1.778s-1.65-.796-1.65-1.778.739-1.778 1.65-1.778 1.65.796 1.65 1.778zM126.07 8.276c0 .982-.739 1.778-1.65 1.778s-1.65-.796-1.65-1.778.739-1.778 1.65-1.778 1.65.796 1.65 1.778zM129.646 5.905c0 .982-.739 1.778-1.65 1.778s-1.65-.796-1.65-1.778.739-1.778 1.65-1.778 1.65.796 1.65 1.778zM133.771 3.238c0 .982-.739 1.778-1.65 1.778s-1.65-.796-1.65-1.778.739-1.778 1.65-1.778 1.65.796 1.65 1.778z"/><path d="M131.846 10.055c.911 0 1.65-.796 1.65-1.778s-.738-1.778-1.65-1.778c-.911 0-1.65.796-1.65 1.778s.739 1.778 1.65 1.778zM61.505 21.475c.14.985-.487 1.906-1.401 2.057s-1.769-.525-1.909-1.51c-.14-.985.487-1.906 1.401-2.057s1.769.525 1.909 1.51zM64.753 18.503c.14.985-.487 1.906-1.401 2.057s-1.769-.525-1.909-1.51c-.14-.985.487-1.906 1.401-2.057s1.769.525 1.909 1.51zM68.511 15.144c.14.985-.487 1.906-1.401 2.057s-1.769-.525-1.909-1.51c-.14-.985.487-1.906 1.401-2.057s1.769.525 1.909 1.51zM72.034 12.128c.14.985-.487 1.906-1.401 2.057s-1.769-.525-1.909-1.51c-.14-.985.487-1.906 1.401-2.057s1.769.525 1.909 1.51zM8.886 20.647c0 .958-.749 1.735-1.674 1.735s-1.674-.777-1.674-1.735c0-.958.749-1.735 1.674-1.735s1.674.777 1.674 1.735zM12.511 18.333c0 .958-.749 1.735-1.674 1.735s-1.674-.777-1.674-1.735c0-.958.749-1.735 1.674-1.735s1.674.777 1.674 1.735zM16.697 15.73c0 .958-.749 1.735-1.674 1.735s-1.674-.777-1.674-1.735c0-.958.749-1.735 1.674-1.735s1.674.777 1.674 1.735zM20.602 13.416c0 .958-.749 1.735-1.674 1.735s-1.674-.777-1.674-1.735c0-.958.749-1.735 1.674-1.735s1.674.777 1.674 1.735zM10.56 24.985c0 .958-.749 1.735-1.674 1.735s-1.674-.777-1.674-1.735c0-.958.749-1.735 1.674-1.735s1.674.777 1.674 1.735zM14.186 22.671c0 .958-.749 1.735-1.674 1.735s-1.674-.777-1.674-1.735c0-.958.749-1.735 1.674-1.735s1.674.777 1.674 1.735zM18.371 20.068c0 .958-.749 1.735-1.674 1.735s-1.674-.777-1.674-1.735c0-.958.749-1.735 1.674-1.735s1.674.777 1.674 1.735zM22.276 17.754c0 .958-.749 1.735-1.674 1.735s-1.674-.777-1.674-1.735c0-.958.749-1.735 1.674-1.735s1.674.777 1.674 1.735zM14.743 27.298c0 .958-.749 1.735-1.674 1.735s-1.674-.777-1.674-1.735c0-.958.749-1.735 1.674-1.735s1.674.777 1.674 1.735zM18.37 24.985c0 .958-.749 1.735-1.674 1.735s-1.674-.777-1.674-1.735c0-.958.749-1.735 1.674-1.735s1.674.777 1.674 1.735zM22.554 22.382c0 .958-.749 1.735-1.674 1.735s-1.674-.777-1.674-1.735c0-.958.749-1.735 1.674-1.735s1.674.777 1.674 1.735zM26.459 20.068c0 .958-.749 1.735-1.674 1.735s-1.674-.777-1.674-1.735c0-.958.749-1.735 1.674-1.735s1.674.777 1.674 1.735zM19.485 28.745c0 .958-.749 1.735-1.674 1.735s-1.674-.777-1.674-1.735c0-.958.749-1.735 1.674-1.735s1.674.777 1.674 1.735zM23.111 26.431c0 .958-.749 1.735-1.674 1.735s-1.674-.777-1.674-1.735c0-.958.749-1.735 1.674-1.735s1.674.777 1.674 1.735zM27.297 23.828c0 .958-.749 1.735-1.674 1.735s-1.674-.777-1.674-1.735c0-.958.749-1.735 1.674-1.735s1.674.777 1.674 1.735zM31.201 21.514c0 .958-.749 1.735-1.674 1.735s-1.674-.777-1.674-1.735c0-.958.749-1.735 1.674-1.735s1.674.777 1.674 1.735z"/><path d="M25.623 29.034c0 .958-.749 1.735-1.674 1.735s-1.674-.777-1.674-1.735c0-.958.749-1.735 1.674-1.735s1.674.777 1.674 1.735zM29.249 26.72c0 .958-.749 1.735-1.674 1.735s-1.674-.777-1.674-1.735c0-.958.749-1.735 1.674-1.735s1.674.777 1.674 1.735zM33.434 24.117c0 .958-.749 1.735-1.674 1.735s-1.674-.777-1.674-1.735c0-.958.749-1.735 1.674-1.735s1.674.777 1.674 1.735zM37.338 21.804c0 .958-.749 1.735-1.674 1.735s-1.674-.777-1.674-1.735c0-.958.749-1.735 1.674-1.735s1.674.777 1.674 1.735zM32.876 29.034c0 .958-.749 1.735-1.674 1.735s-1.674-.777-1.674-1.735c0-.958.749-1.735 1.674-1.735s1.674.777 1.674 1.735zM36.502 26.72c0 .958-.749 1.735-1.674 1.735s-1.674-.777-1.674-1.735c0-.958.749-1.735 1.674-1.735s1.674.777 1.674 1.735zM40.686 24.117c0 .958-.749 1.735-1.674 1.735s-1.674-.777-1.674-1.735c0-.958.749-1.735 1.674-1.735s1.674.777 1.674 1.735zM44.592 21.804c0 .958-.749 1.735-1.674 1.735s-1.674-.777-1.674-1.735c0-.958.749-1.735 1.674-1.735s1.674.777 1.674 1.735z"/><path d="M39.011 28.745c0 .958-.749 1.735-1.674 1.735s-1.674-.777-1.674-1.735c0-.958.749-1.735 1.674-1.735s1.674.777 1.674 1.735zM42.638 26.431c0 .958-.749 1.735-1.674 1.735s-1.674-.777-1.674-1.735c0-.958.749-1.735 1.674-1.735s1.674.777 1.674 1.735zM46.823 23.828c0 .958-.749 1.735-1.674 1.735s-1.674-.777-1.674-1.735c0-.958.749-1.735 1.674-1.735s1.674.777 1.674 1.735zM50.727 21.514c0 .958-.749 1.735-1.674 1.735s-1.674-.777-1.674-1.735c0-.958.749-1.735 1.674-1.735s1.674.777 1.674 1.735zM45.985 28.455c0 .958-.749 1.735-1.674 1.735s-1.674-.777-1.674-1.735c0-.958.749-1.735 1.674-1.735s1.674.777 1.674 1.735zM49.611 26.142c0 .958-.749 1.735-1.674 1.735s-1.674-.777-1.674-1.735c0-.958.749-1.735 1.674-1.735s1.674.777 1.674 1.735zM53.796 23.539c0 .958-.749 1.735-1.674 1.735s-1.674-.777-1.674-1.735c0-.958.749-1.735 1.674-1.735s1.674.777 1.674 1.735zM57.701 21.225c0 .958-.749 1.735-1.674 1.735s-1.674-.777-1.674-1.735c0-.958.749-1.735 1.674-1.735s1.674.777 1.674 1.735z"/><path d="M52.401 20.936c0 .958-.749 1.735-1.674 1.735s-1.674-.777-1.674-1.735c0-.958.749-1.735 1.674-1.735s1.674.777 1.674 1.735zM56.027 18.622c0 .958-.749 1.735-1.674 1.735s-1.674-.777-1.674-1.735c0-.958.749-1.735 1.674-1.735s1.674.777 1.674 1.735zM60.212 16.019c0 .958-.749 1.735-1.674 1.735s-1.674-.777-1.674-1.735c0-.958.749-1.735 1.674-1.735s1.674.777 1.674 1.735zM64.117 13.705c0 .958-.749 1.735-1.674 1.735s-1.674-.777-1.674-1.735c0-.958.749-1.735 1.674-1.735s1.674.777 1.674 1.735z"/></symbol><symbol id="icon-hero-dots-mobile" viewBox="0 0 205 32"><path d="M156.54 29.616c0 .982-.745 1.778-1.664 1.778s-1.664-.796-1.664-1.778.745-1.778 1.664-1.778 1.664.796 1.664 1.778zM160.146 27.245c0 .982-.745 1.778-1.664 1.778s-1.664-.796-1.664-1.778.745-1.778 1.664-1.778 1.664.796 1.664 1.778zM164.305 24.578c0 .982-.745 1.778-1.664 1.778s-1.664-.796-1.664-1.778.745-1.778 1.664-1.778 1.664.796 1.664 1.778zM168.189 22.206c0 .982-.745 1.778-1.664 1.778s-1.664-.796-1.664-1.778.745-1.778 1.664-1.778 1.664.796 1.664 1.778zM165.969 28.431c0 .982-.745 1.778-1.664 1.778s-1.664-.796-1.664-1.778.745-1.778 1.664-1.778 1.664.796 1.664 1.778zM169.575 26.06c0 .982-.745 1.778-1.664 1.778s-1.664-.796-1.664-1.778.745-1.778 1.664-1.778 1.664.796 1.664 1.778zM173.735 23.392c0 .982-.745 1.778-1.664 1.778s-1.664-.796-1.664-1.778.745-1.778 1.664-1.778 1.664.796 1.664 1.778zM177.619 21.021c0 .982-.745 1.778-1.664 1.778s-1.664-.796-1.664-1.778.745-1.778 1.664-1.778 1.664.796 1.664 1.778zM174.014 27.542c0 .982-.745 1.778-1.664 1.778s-1.664-.796-1.664-1.778.745-1.778 1.664-1.778 1.664.796 1.664 1.778zM177.619 25.171c0 .982-.745 1.778-1.664 1.778s-1.664-.796-1.664-1.778.745-1.778 1.664-1.778 1.664.796 1.664 1.778zM181.779 22.503c0 .982-.745 1.778-1.664 1.778s-1.664-.796-1.664-1.778.745-1.778 1.664-1.778 1.664.796 1.664 1.778zM185.662 20.132c0 .982-.745 1.778-1.664 1.778s-1.664-.796-1.664-1.778.745-1.778 1.664-1.778 1.664.796 1.664 1.778zM181.778 26.356c0 .982-.745 1.778-1.664 1.778s-1.664-.796-1.664-1.778.745-1.778 1.664-1.778 1.664.796 1.664 1.778zM185.383 23.985c0 .982-.745 1.778-1.664 1.778s-1.664-.796-1.664-1.778.745-1.778 1.664-1.778 1.664.796 1.664 1.778zM189.543 21.318c0 .982-.745 1.778-1.664 1.778s-1.664-.796-1.664-1.778.745-1.778 1.664-1.778 1.664.796 1.664 1.778zM193.427 18.947c0 .982-.745 1.778-1.664 1.778s-1.664-.796-1.664-1.778.745-1.778 1.664-1.778 1.664.796 1.664 1.778zM184.276 29.616c0 .982-.745 1.778-1.664 1.778s-1.664-.796-1.664-1.778.745-1.778 1.664-1.778 1.664.796 1.664 1.778zM187.882 27.245c0 .982-.745 1.778-1.664 1.778s-1.664-.796-1.664-1.778.745-1.778 1.664-1.778 1.664.796 1.664 1.778zM192.874 29.913c0 .982-.745 1.778-1.664 1.778s-1.664-.796-1.664-1.778.745-1.778 1.664-1.778 1.664.796 1.664 1.778zM192.042 24.578c0 .982-.745 1.778-1.664 1.778s-1.664-.796-1.664-1.778.745-1.778 1.664-1.778 1.664.796 1.664 1.778zM197.034 27.245c0 .982-.745 1.778-1.664 1.778s-1.664-.796-1.664-1.778.745-1.778 1.664-1.778 1.664.796 1.664 1.778zM200.918 29.913c0 .982-.745 1.778-1.664 1.778s-1.664-.796-1.664-1.778.745-1.778 1.664-1.778 1.664.796 1.664 1.778zM195.925 22.206c0 .982-.745 1.778-1.664 1.778s-1.664-.796-1.664-1.778.745-1.778 1.664-1.778 1.664.796 1.664 1.778zM200.918 24.874c0 .982-.745 1.778-1.664 1.778s-1.664-.796-1.664-1.778.745-1.778 1.664-1.778 1.664.796 1.664 1.778zM204.801 27.542c0 .982-.745 1.778-1.664 1.778s-1.664-.796-1.664-1.778.745-1.778 1.664-1.778 1.664.796 1.664 1.778zM139.622 10.055c0 .982-.745 1.778-1.664 1.778s-1.664-.796-1.664-1.778.745-1.778 1.664-1.778 1.664.796 1.664 1.778zM143.227 7.684c0 .982-.745 1.778-1.664 1.778s-1.664-.796-1.664-1.778.745-1.778 1.664-1.778 1.664.796 1.664 1.778zM147.388 5.016c0 .982-.745 1.778-1.664 1.778s-1.664-.796-1.664-1.778.745-1.778 1.664-1.778 1.664.796 1.664 1.778zM151.27 2.645c0 .982-.745 1.778-1.664 1.778s-1.664-.796-1.664-1.778.745-1.778 1.664-1.778 1.664.796 1.664 1.778zM132.687 9.758c0 .982-.745 1.778-1.664 1.778s-1.664-.796-1.664-1.778.745-1.778 1.664-1.778 1.664.796 1.664 1.778zM136.293 7.387c0 .982-.745 1.778-1.664 1.778s-1.664-.796-1.664-1.778.745-1.778 1.664-1.778 1.664.796 1.664 1.778zM140.453 4.72c0 .982-.745 1.778-1.664 1.778s-1.664-.796-1.664-1.778.745-1.778 1.664-1.778 1.664.796 1.664 1.778zM144.335 2.349c0 .982-.745 1.778-1.664 1.778s-1.664-.796-1.664-1.778.745-1.778 1.664-1.778 1.664.796 1.664 1.778zM148.219 29.616c0 .982-.745 1.778-1.664 1.778s-1.664-.796-1.664-1.778.745-1.778 1.664-1.778 1.664.796 1.664 1.778zM151.824 27.245c0 .982-.745 1.778-1.664 1.778s-1.664-.796-1.664-1.778.745-1.778 1.664-1.778 1.664.796 1.664 1.778zM155.984 24.578c0 .982-.745 1.778-1.664 1.778s-1.664-.796-1.664-1.778.745-1.778 1.664-1.778 1.664.796 1.664 1.778zM159.868 22.206c0 .982-.745 1.778-1.664 1.778s-1.664-.796-1.664-1.778.745-1.778 1.664-1.778 1.664.796 1.664 1.778zM143.781 27.838c0 .982-.745 1.778-1.664 1.778s-1.664-.796-1.664-1.778.745-1.778 1.664-1.778 1.664.796 1.664 1.778zM147.387 25.467c0 .982-.745 1.778-1.664 1.778s-1.664-.796-1.664-1.778.745-1.778 1.664-1.778 1.664.796 1.664 1.778zM151.547 22.8c0 .982-.745 1.778-1.664 1.778s-1.664-.796-1.664-1.778.745-1.778 1.664-1.778 1.664.796 1.664 1.778zM155.43 20.429c0 .982-.745 1.778-1.664 1.778s-1.664-.796-1.664-1.778.745-1.778 1.664-1.778 1.664.796 1.664 1.778zM145.446 21.614c0 .982-.745 1.778-1.664 1.778s-1.664-.796-1.664-1.778.745-1.778 1.664-1.778 1.664.796 1.664 1.778zM149.051 19.243c0 .982-.745 1.778-1.664 1.778s-1.664-.796-1.664-1.778.745-1.778 1.664-1.778 1.664.796 1.664 1.778zM153.212 16.575c0 .982-.745 1.778-1.664 1.778s-1.664-.796-1.664-1.778.745-1.778 1.664-1.778 1.664.796 1.664 1.778zM157.095 14.204c0 .982-.745 1.778-1.664 1.778s-1.664-.796-1.664-1.778.745-1.778 1.664-1.778 1.664.796 1.664 1.778zM145.446 11.24c0 .982-.745 1.778-1.664 1.778s-1.664-.796-1.664-1.778.745-1.778 1.664-1.778 1.664.796 1.664 1.778zM149.051 8.869c0 .982-.745 1.778-1.664 1.778s-1.664-.796-1.664-1.778.745-1.778 1.664-1.778 1.664.796 1.664 1.778zM153.212 6.202c0 .982-.745 1.778-1.664 1.778s-1.664-.796-1.664-1.778.745-1.778 1.664-1.778 1.664.796 1.664 1.778zM157.095 3.831c0 .982-.745 1.778-1.664 1.778s-1.664-.796-1.664-1.778.745-1.778 1.664-1.778 1.664.796 1.664 1.778zM144.613 16.872c0 .982-.745 1.778-1.664 1.778s-1.664-.796-1.664-1.778.745-1.778 1.664-1.778 1.664.796 1.664 1.778zM148.22 14.501c0 .982-.745 1.778-1.664 1.778s-1.664-.796-1.664-1.778.745-1.778 1.664-1.778 1.664.796 1.664 1.778zM152.379 11.833c0 .982-.745 1.778-1.664 1.778s-1.664-.796-1.664-1.778.745-1.778 1.664-1.778 1.664.796 1.664 1.778zM156.262 9.462c0 .982-.745 1.778-1.664 1.778s-1.664-.796-1.664-1.778.745-1.778 1.664-1.778 1.664.796 1.664 1.778zM127.14 8.276c0 .982-.745 1.778-1.664 1.778s-1.664-.796-1.664-1.778.745-1.778 1.664-1.778 1.664.796 1.664 1.778zM130.746 5.905c0 .982-.745 1.778-1.664 1.778s-1.664-.796-1.664-1.778.745-1.778 1.664-1.778 1.664.796 1.664 1.778zM134.906 3.238c0 .982-.745 1.778-1.664 1.778s-1.664-.796-1.664-1.778.745-1.778 1.664-1.778 1.664.796 1.664 1.778z"/><path d="M132.964 10.055c.919 0 1.665-.796 1.665-1.778s-.746-1.778-1.665-1.778-1.664.796-1.664 1.778.745 1.778 1.664 1.778zM56.441 21.475c.141.985-.491 1.906-1.413 2.057s-1.784-.525-1.925-1.51c-.141-.985.491-1.906 1.413-2.057s1.784.525 1.925 1.51zM59.717 18.504c.141.985-.491 1.906-1.413 2.057s-1.784-.525-1.925-1.51c-.141-.985.491-1.906 1.413-2.057s1.784.525 1.925 1.51zM63.506 15.144c.141.985-.491 1.906-1.413 2.057s-1.784-.525-1.925-1.51c-.141-.985.491-1.906 1.413-2.057s1.784.525 1.925 1.51zM67.06 12.128c.141.985-.491 1.906-1.413 2.057s-1.784-.525-1.925-1.51c-.141-.985.491-1.906 1.413-2.057s1.784.525 1.925 1.51zM3.481 21.473c0 .997-.779 1.805-1.741 1.805s-1.741-.808-1.741-1.805c0-.997.779-1.805 1.741-1.805s1.741.808 1.741 1.805zM7.252 19.067c0 .997-.779 1.805-1.741 1.805s-1.741-.808-1.741-1.805c0-.997.779-1.805 1.741-1.805s1.741.808 1.741 1.805zM11.605 16.36c0 .997-.779 1.805-1.741 1.805s-1.741-.808-1.741-1.805c0-.997.779-1.805 1.741-1.805s1.741.808 1.741 1.805zM15.666 13.953c0 .997-.779 1.805-1.741 1.805s-1.741-.808-1.741-1.805c0-.997.779-1.805 1.741-1.805s1.741.808 1.741 1.805zM5.223 25.984c0 .997-.779 1.805-1.741 1.805s-1.741-.808-1.741-1.805c0-.997.779-1.805 1.741-1.805s1.741.808 1.741 1.805zM8.994 23.578c0 .997-.779 1.805-1.741 1.805s-1.741-.808-1.741-1.805c0-.997.779-1.805 1.741-1.805s1.741.808 1.741 1.805zM13.346 20.871c0 .997-.779 1.805-1.741 1.805s-1.741-.808-1.741-1.805c0-.997.779-1.805 1.741-1.805s1.741.808 1.741 1.805zM17.407 18.465c0 .997-.779 1.805-1.741 1.805s-1.741-.808-1.741-1.805c0-.997.779-1.805 1.741-1.805s1.741.808 1.741 1.805zM9.573 28.39c0 .997-.779 1.805-1.741 1.805s-1.741-.808-1.741-1.805c0-.997.779-1.805 1.741-1.805s1.741.808 1.741 1.805zM13.345 25.984c0 .997-.779 1.805-1.741 1.805s-1.741-.808-1.741-1.805c0-.997.779-1.805 1.741-1.805s1.741.808 1.741 1.805zM17.696 23.277c0 .997-.779 1.805-1.741 1.805s-1.741-.808-1.741-1.805c0-.997.779-1.805 1.741-1.805s1.741.808 1.741 1.805zM21.758 20.871c0 .997-.779 1.805-1.741 1.805s-1.741-.808-1.741-1.805c0-.997.779-1.805 1.741-1.805s1.741.808 1.741 1.805zM14.504 29.895c0 .997-.779 1.805-1.741 1.805s-1.741-.808-1.741-1.805c0-.997.779-1.805 1.741-1.805s1.741.808 1.741 1.805zM18.276 27.488c0 .997-.779 1.805-1.741 1.805s-1.741-.808-1.741-1.805c0-.997.779-1.805 1.741-1.805s1.741.808 1.741 1.805zM22.629 24.781c0 .997-.779 1.805-1.741 1.805s-1.741-.808-1.741-1.805c0-.997.779-1.805 1.741-1.805s1.741.808 1.741 1.805zM26.689 22.375c0 .997-.779 1.805-1.741 1.805s-1.741-.808-1.741-1.805c0-.997.779-1.805 1.741-1.805s1.741.808 1.741 1.805z"/><path d="M20.888 30.196c0 .997-.779 1.805-1.741 1.805s-1.741-.808-1.741-1.805c0-.997.779-1.805 1.741-1.805s1.741.808 1.741 1.805zM24.659 27.789c0 .997-.779 1.805-1.741 1.805s-1.741-.808-1.741-1.805c0-.997.779-1.805 1.741-1.805s1.741.808 1.741 1.805zM29.011 25.082c0 .997-.779 1.805-1.741 1.805s-1.741-.808-1.741-1.805c0-.997.779-1.805 1.741-1.805s1.741.808 1.741 1.805zM33.072 22.676c0 .997-.779 1.805-1.741 1.805s-1.741-.808-1.741-1.805c0-.997.779-1.805 1.741-1.805s1.741.808 1.741 1.805zM28.431 30.195c0 .997-.779 1.805-1.741 1.805s-1.741-.808-1.741-1.805c0-.997.779-1.805 1.741-1.805s1.741.808 1.741 1.805zM32.202 27.789c0 .997-.779 1.805-1.741 1.805s-1.741-.808-1.741-1.805c0-.997.779-1.805 1.741-1.805s1.741.808 1.741 1.805zM36.554 25.082c0 .997-.779 1.805-1.741 1.805s-1.741-.808-1.741-1.805c0-.997.779-1.805 1.741-1.805s1.741.808 1.741 1.805zM40.616 22.676c0 .997-.779 1.805-1.741 1.805s-1.741-.808-1.741-1.805c0-.997.779-1.805 1.741-1.805s1.741.808 1.741 1.805z"/><path d="M34.812 29.895c0 .997-.779 1.805-1.741 1.805s-1.741-.808-1.741-1.805c0-.997.779-1.805 1.741-1.805s1.741.808 1.741 1.805zM38.583 27.488c0 .997-.779 1.805-1.741 1.805s-1.741-.808-1.741-1.805c0-.997.779-1.805 1.741-1.805s1.741.808 1.741 1.805zM42.936 24.781c0 .997-.779 1.805-1.741 1.805s-1.741-.808-1.741-1.805c0-.997.779-1.805 1.741-1.805s1.741.808 1.741 1.805zM46.996 22.375c0 .997-.779 1.805-1.741 1.805s-1.741-.808-1.741-1.805c0-.997.779-1.805 1.741-1.805s1.741.808 1.741 1.805zM42.064 29.594c0 .997-.779 1.805-1.741 1.805s-1.741-.808-1.741-1.805c0-.997.779-1.805 1.741-1.805s1.741.808 1.741 1.805zM45.836 27.187c0 .997-.779 1.805-1.741 1.805s-1.741-.808-1.741-1.805c0-.997.779-1.805 1.741-1.805s1.741.808 1.741 1.805zM50.188 24.481c0 .997-.779 1.805-1.741 1.805s-1.741-.808-1.741-1.805c0-.997.779-1.805 1.741-1.805s1.741.808 1.741 1.805zM54.249 22.074c0 .997-.779 1.805-1.741 1.805s-1.741-.808-1.741-1.805c0-.997.779-1.805 1.741-1.805s1.741.808 1.741 1.805z"/><path d="M48.737 21.773c0 .997-.779 1.805-1.741 1.805s-1.741-.808-1.741-1.805c0-.997.779-1.805 1.741-1.805s1.741.808 1.741 1.805zM52.508 19.367c0 .997-.779 1.805-1.741 1.805s-1.741-.808-1.741-1.805c0-.997.779-1.805 1.741-1.805s1.741.808 1.741 1.805zM56.86 16.66c0 .997-.779 1.805-1.741 1.805s-1.741-.808-1.741-1.805c0-.997.779-1.805 1.741-1.805s1.741.808 1.741 1.805zM60.921 14.254c0 .997-.779 1.805-1.741 1.805s-1.741-.808-1.741-1.805c0-.997.779-1.805 1.741-1.805s1.741.808 1.741 1.805z"/></symbol><symbol id="icon-hero-dots-desktop" viewBox="0 0 100 32"><path d="M45.81 25.797c0 .287-.219.52-.488.52s-.488-.233-.488-.52c0-.287.219-.52.488-.52s.488.233.488.52zM46.949 25.104c0 .287-.219.52-.488.52s-.488-.233-.488-.52c0-.287.219-.52.488-.52s.488.233.488.52zM44.915 27.705c0 .287-.219.52-.488.52s-.488-.233-.488-.52c0-.287.219-.52.488-.52s.488.233.488.52zM45.972 27.011c0 .287-.219.52-.488.52s-.488-.233-.488-.52c0-.287.219-.52.488-.52s.488.233.488.52zM47.193 26.231c0 .287-.219.52-.488.52s-.488-.233-.488-.52c0-.287.219-.52.488-.52s.488.233.488.52zM48.332 25.537c0 .287-.219.52-.488.52s-.488-.233-.488-.52c0-.287.219-.52.488-.52s.488.233.488.52z"/><path d="M46.705 27.792c0 .287-.219.52-.488.52s-.488-.233-.488-.52c0-.287.219-.52.488-.52s.488.233.488.52zM47.762 27.098c0 .287-.219.52-.488.52s-.488-.233-.488-.52c0-.287.219-.52.488-.52s.488.233.488.52zM48.983 26.318c0 .287-.219.52-.488.52s-.488-.233-.488-.52c0-.287.219-.52.488-.52s.488.233.488.52zM50.122 25.624c0 .287-.219.52-.488.52s-.488-.233-.488-.52c0-.287.219-.52.488-.52s.488.233.488.52zM48.82 27.792c0 .287-.219.52-.488.52s-.488-.233-.488-.52c0-.287.219-.52.488-.52s.488.233.488.52zM49.878 27.098c0 .287-.219.52-.488.52s-.488-.233-.488-.52c0-.287.219-.52.488-.52s.488.233.488.52zM51.098 26.318c0 .287-.219.52-.488.52s-.488-.233-.488-.52c0-.287.219-.52.488-.52s.488.233.488.52zM52.238 25.624c0 .287-.219.52-.488.52s-.488-.233-.488-.52c0-.287.219-.52.488-.52s.488.233.488.52z"/><path d="M50.61 27.705c0 .287-.219.52-.488.52s-.488-.233-.488-.52c0-.287.219-.52.488-.52s.488.233.488.52zM51.668 27.011c0 .287-.219.52-.488.52s-.488-.233-.488-.52c0-.287.219-.52.488-.52s.488.233.488.52zM52.889 26.231c0 .287-.219.52-.488.52s-.488-.233-.488-.52c0-.287.219-.52.488-.52s.488.233.488.52zM54.028 25.537c0 .287-.219.52-.488.52s-.488-.233-.488-.52c0-.287.219-.52.488-.52s.488.233.488.52zM52.644 27.618c0 .287-.219.52-.488.52s-.488-.233-.488-.52c0-.287.219-.52.488-.52s.488.233.488.52zM53.702 26.925c0 .287-.219.52-.488.52s-.488-.233-.488-.52c0-.287.219-.52.488-.52s.488.233.488.52zM54.923 26.144c0 .287-.219.52-.488.52s-.488-.233-.488-.52c0-.287.219-.52.488-.52s.488.233.488.52zM56.062 25.45c0 .287-.219.52-.488.52s-.488-.233-.488-.52c0-.287.219-.52.488-.52s.488.233.488.52z"/><path d="M54.516 25.364c0 .287-.219.52-.488.52s-.488-.233-.488-.52c0-.287.219-.52.488-.52s.488.233.488.52zM55.574 24.67c0 .287-.219.52-.488.52s-.488-.233-.488-.52c0-.287.219-.52.488-.52s.488.233.488.52zM56.794 23.889c0 .287-.219.52-.488.52s-.488-.233-.488-.52c0-.287.219-.52.488-.52s.488.233.488.52zM57.933 23.196c0 .287-.219.52-.488.52s-.488-.233-.488-.52c0-.287.219-.52.488-.52s.488.233.488.52z"/></symbol>
<symbol id="icon-button-arrow" viewBox="0 0 22 32"><path d="M3.103.727a2.4 2.4 0 0 0 0 3.394l11.88 11.88-11.88 11.88a2.398 2.398 0 0 0 1.705 4.067 2.393 2.393 0 0 0 1.688-.674l13.577-13.577a2.4 2.4 0 0 0 0-3.394L6.496.726a2.4 2.4 0 0 0-3.394 0z"/></symbol></path>
</symbol></defs></svg>